<svg width="34" height="30" viewBox="0 0 38 34" fill="none" xmlns="http://www.w3.org/2000/svg">
<path d="M36.5053 4.17919C36.4655 4.00972 36.3691 3.85862 36.2319 3.75045C36.0947 3.64228 35.9247 3.58342 35.7495 3.58341H27.396C27.224 3.58354 27.0569 3.64041 26.921 3.74511C26.7851 3.8498 26.688 3.99639 26.645 4.16185L25.5777 8.21858L20.0139 1.59841C19.9282 1.49655 19.8176 1.41835 19.6927 1.3714C19.5677 1.32445 19.4327 1.31034 19.3007 1.3304C19.1685 1.35036 19.0438 1.4039 18.9386 1.48581C18.8333 1.56773 18.7512 1.67526 18.7001 1.79798L12.8636 15.8365L2.0572 10.7859C1.88849 10.7072 1.69695 10.6916 1.51755 10.7416C1.33816 10.7917 1.1829 10.9043 1.08011 11.0587C0.977188 11.2132 0.933687 11.3993 0.957562 11.5831C0.981437 11.7668 1.07108 11.9359 1.21011 12.0594L10.6746 20.4554L16.9118 32.1773C16.9737 32.2938 17.0646 32.3927 17.1758 32.4644C17.2871 32.5362 17.415 32.5784 17.5473 32.587H17.5978C17.7218 32.5872 17.844 32.5579 17.9542 32.5016C18.0645 32.4452 18.1595 32.3634 18.2314 32.2631L30.5331 15.0605C30.5447 15.0441 30.5544 15.0258 30.5651 15.0084C30.5758 14.9911 30.5816 14.9824 30.5893 14.9679C30.6014 14.9438 30.6121 14.919 30.6214 14.8937C30.6214 14.8821 30.632 14.8706 30.6359 14.858C30.6486 14.8203 30.6583 14.7816 30.665 14.7424C30.6655 14.7334 30.6655 14.7244 30.665 14.7154C30.6695 14.687 30.6721 14.6583 30.6728 14.6295L30.8154 7.62859L36.0881 5.04491C36.2459 4.96869 36.373 4.84162 36.4488 4.6844C36.5246 4.52719 36.5445 4.3491 36.5053 4.17919ZM29.1261 5.1259V14.0367L26.3122 14.8474L26.7246 9.99342L27.9996 5.12687L29.1261 5.1259ZM19.65 3.56414L25.1527 10.113L24.7888 14.3982L17.2776 13.8458C17.172 13.8377 17.0659 13.8511 16.9658 13.8853C16.8657 13.9194 16.7737 13.9736 16.6954 14.0444L14.4384 16.0853L19.65 3.56414ZM22.9607 15.8076L14.2919 18.3036L17.494 15.4056L22.9607 15.8076ZM12.8432 17.5275L11.2907 18.9302L6.22084 14.4339L12.8432 17.5275ZM17.6948 30.3494L12.426 20.4486L27.9773 15.9715L17.6948 30.3494ZM30.6757 5.98004V5.1259H32.4223L30.6757 5.98004Z" fill="#1E1E1E" stroke="#1E1E1E"/>
</svg>
